<?xml version="1.0" encoding="UTF-8" standalone="no"?>
<svg
   version="1.0"
   width="597.32025pt"
   height="532.49243pt"
   viewBox="0 0 597.32025 532.49243"
   preserveAspectRatio="xMidYMid"
   id="svg13"
   sodipodi:docname="509e1ac1-1cfc-4572-887c-41cbf2f1b5ea.svg"
   xmlns:inkscape="http://www.inkscape.org/namespaces/inkscape"
   xmlns:sodipodi="http://sodipodi.sourceforge.net/DTD/sodipodi-0.dtd"
   xmlns="http://www.w3.org/2000/svg"
   xmlns:svg="http://www.w3.org/2000/svg">
  <defs
     id="defs13" />
  <sodipodi:namedview
     id="namedview13"
     pagecolor="#505050"
     bordercolor="#eeeeee"
     borderopacity="1"
     inkscape:showpageshadow="0"
     inkscape:pageopacity="0"
     inkscape:pagecheckerboard="0"
     inkscape:deskcolor="#505050"
     inkscape:document-units="pt" />
  <metadata
     id="metadata1">
Created by potrace 1.16, written by Peter Selinger 2001-2019
</metadata>
  <g
     transform="matrix(0.1,0,0,-0.1,-97.536984,596.84342)"
     fill="#000000"
     stroke="none"
     id="g13">
    <rect
       style="fill:#46142b;fill-opacity:1;fill-rule:evenodd;stroke-width:7.5"
       id="rect14"
       width="3216.6299"
       height="2918.1794"
       x="2288.1179"
       y="-5264.3296"
       transform="matrix(0.99999998,0,0,-0.99999998,0,-2.5e-5)" />
    <path
       d="m 4020,5963 c -531,-52 -1111,-260 -1528,-550 -281,-196 -492,-407 -665,-668 -220,-332 -330,-722 -314,-1119 8,-223 51,-385 153,-590 111,-221 281,-453 474,-646 365,-366 725,-559 1163,-626 132,-21 471,-20 668,1 439,46 864,170 1249,365 234,119 458,272 614,419 132,126 271,323 361,513 99,211 142,390 151,638 7,194 -7,336 -61,607 -45,229 -164,704 -204,812 -111,304 -373,553 -721,686 -184,70 -468,128 -760,155 -105,9 -496,12 -580,3 z m 652,-743 c 199,-41 351,-116 475,-234 125,-118 199,-238 250,-403 23,-78 26,-105 27,-238 1,-128 -3,-162 -22,-229 -63,-219 -200,-413 -377,-535 -157,-109 -312,-153 -617,-175 -68,-5 -68,-5 -68,313 0,318 0,318 78,334 101,22 177,67 219,130 79,117 59,264 -49,363 -63,58 -121,78 -210,72 -84,-6 -126,-24 -185,-81 -83,-79 -78,-11 -78,-1145 0,-998 0,-1003 -20,-998 -11,2 -47,12 -80,22 -98,29 -318,24 -467,-9 -170,-38 -314,-51 -436,-37 -178,19 -314,68 -429,153 -71,53 -113,105 -154,193 -61,128 -62,133 -66,887 l -5,687 h 311 310 l 3,-662 c 3,-663 3,-663 28,-707 32,-56 78,-81 148,-81 43,0 58,5 77,25 25,24 25,24 25,697 0,709 6,853 39,983 27,104 107,263 174,345 102,125 265,241 414,294 66,23 196,49 298,60 84,9 288,-4 387,-24 z"
       id="path1"
       style="fill:#ffffff;fill-opacity:1" />
    <path
       d="m 6052,2306 c -40,-19 -79,-60 -98,-105 -18,-43 -18,-122 0,-164 17,-39 71,-92 109,-106 44,-17 127,-13 174,8 127,58 140,270 20,349 -49,32 -152,41 -205,18 z"
       id="path2"
       style="fill:#ffffff;fill-opacity:1" />
    <path
       d="m 5520,1499 c -41,-17 -60,-40 -60,-76 0,-77 103,-110 161,-52 57,57 -23,158 -101,128 z"
       id="path3"
       style="fill:#ffffff;fill-opacity:1" />
    <path
       d="m 1288,1470 c -70,-12 -151,-53 -198,-100 -119,-119 -150,-346 -71,-516 39,-84 91,-138 169,-176 59,-29 74,-32 156,-32 117,0 190,27 256,94 46,45 98,150 85,171 -4,5 -38,9 -76,9 -67,0 -70,-1 -80,-27 -24,-64 -97,-113 -169,-113 -89,0 -187,76 -208,163 -15,59 -15,188 -1,238 15,50 62,105 110,129 46,24 137,27 179,5 32,-17 74,-67 85,-103 6,-22 11,-23 83,-20 76,3 77,3 74,28 -11,78 -85,176 -163,215 -38,20 -157,49 -179,44 -3,-1 -26,-5 -52,-9 z"
       id="path4"
       style="fill:#ffffff;fill-opacity:1" />
    <path
       d="m 5100,1331 c 0,-70 0,-70 -42,-73 -43,-3 -43,-3 -43,-58 0,-55 0,-55 43,-58 42,-3 42,-3 42,-193 0,-215 7,-247 62,-275 20,-11 64,-19 115,-22 95,-5 99,-3 86,74 -8,48 -9,49 -48,54 -67,9 -65,4 -65,190 0,169 0,169 58,172 57,3 57,3 60,55 3,49 1,53 -23,59 -14,3 -41,3 -60,0 -34,-7 -34,-7 -37,66 -3,73 -3,73 -75,76 -73,3 -73,3 -73,-67 z"
       id="path5"
       style="fill:#ffffff;fill-opacity:1" />
    <path
       d="m 1962,1252 c -131,-47 -207,-194 -181,-353 17,-107 68,-183 153,-227 43,-22 64,-26 131,-26 128,0 208,46 260,151 55,113 44,271 -28,365 -70,92 -217,132 -335,90 z m 175,-122 c 50,-30 67,-72 67,-170 0,-90 -8,-116 -52,-162 -22,-24 -33,-28 -83,-28 -50,0 -61,4 -87,30 -63,63 -68,245 -9,309 42,45 111,54 164,21 z"
       id="path6"
       style="fill:#ffffff;fill-opacity:1" />
    <path
       d="m 3950,1261 c -81,-26 -140,-80 -178,-161 -23,-47 -26,-68 -26,-150 0,-107 17,-159 72,-222 68,-77 223,-108 333,-65 50,19 112,77 128,119 12,33 9,36 -63,44 -52,6 -57,5 -77,-19 -24,-31 -88,-51 -132,-42 -35,8 -85,49 -97,80 -27,71 -44,64 182,67 203,3 203,3 201,73 -3,126 -46,206 -138,250 -58,29 -158,42 -205,26 z m 152,-137 c 21,-19 48,-73 48,-96 0,-10 -30,-13 -125,-13 -120,0 -125,1 -125,21 0,28 40,86 70,102 33,17 105,9 132,-14 z"
       id="path7"
       style="fill:#ffffff;fill-opacity:1" />
    <path
       d="m 4573,1254 c -60,-22 -126,-84 -154,-146 -33,-73 -34,-229 -3,-298 30,-65 69,-107 128,-137 42,-22 65,-27 132,-27 133,0 217,53 255,162 6,18 9,35 7,38 -3,2 -35,7 -71,11 -64,6 -67,5 -76,-19 -16,-42 -58,-68 -110,-68 -88,0 -130,62 -131,188 0,124 42,185 129,186 53,1 81,-16 107,-66 12,-24 21,-28 57,-28 91,0 104,18 68,89 -55,107 -210,160 -338,115 z"
       id="path8"
       style="fill:#ffffff;fill-opacity:1" />
    <path
       d="m 5945,1261 c -87,-23 -150,-77 -189,-161 -16,-36 -20,-65 -20,-140 0,-119 24,-180 95,-244 57,-52 118,-72 211,-70 115,3 197,58 247,164 22,47 26,68 25,150 0,74 -5,105 -21,141 -30,67 -76,113 -135,139 -57,24 -161,35 -213,21 z m 141,-126 c 50,-21 73,-78 74,-177 0,-87 -10,-121 -48,-160 -22,-24 -34,-28 -83,-28 -71,0 -113,30 -130,93 -15,57 -7,184 15,225 29,56 103,76 172,47 z"
       id="path9"
       style="fill:#ffffff;fill-opacity:1" />
    <path
       d="m 2465,1247 c -3,-7 -4,-143 -3,-302 3,-290 3,-290 73,-290 70,0 70,0 75,200 3,124 9,208 17,220 24,43 52,59 104,59 41,0 55,-5 77,-27 27,-27 27,-27 32,-240 5,-212 5,-212 77,-215 70,-3 73,-2 79,23 10,40 -2,406 -15,448 -15,47 -66,106 -108,123 -18,8 -61,14 -95,14 -77,0 -127,-23 -147,-69 -19,-41 -37,-34 -33,14 3,24 -1,41 -10,46 -21,14 -118,11 -123,-4 z"
       id="path10"
       style="fill:#ffffff;fill-opacity:1" />
    <path
       d="m 3122,1252 c -9,-7 -12,-74 -10,-303 3,-294 3,-294 73,-294 70,0 70,0 75,195 6,209 14,245 63,271 51,28 143,6 163,-39 4,-9 10,-109 13,-222 6,-205 6,-205 76,-205 70,0 70,0 73,204 3,220 -6,281 -49,335 -33,42 -90,66 -159,66 -78,0 -125,-20 -151,-65 -28,-46 -43,-45 -36,2 4,21 2,42 -5,50 -12,14 -105,18 -126,5 z"
       id="path11"
       style="fill:#ffffff;fill-opacity:1" />
    <path
       d="m 5487,1253 c -11,-18 -11,-583 -1,-593 6,-6 39,-10 75,-8 64,3 64,3 67,297 2,229 -1,296 -10,303 -16,10 -125,11 -131,1 z"
       id="path12"
       style="fill:#ffffff;fill-opacity:1" />
    <path
       d="m 6422,1252 c -9,-7 -12,-74 -10,-303 3,-294 3,-294 73,-294 70,0 70,0 75,195 5,172 8,199 25,230 28,47 77,66 134,50 71,-19 75,-34 81,-270 5,-205 5,-205 75,-205 70,0 70,0 73,195 3,213 -5,275 -43,332 -36,54 -89,78 -172,78 -79,0 -123,-21 -148,-70 -19,-37 -39,-30 -30,11 10,44 -8,59 -69,59 -28,0 -57,-4 -64,-8 z"
       id="path13"
       style="fill:#ffffff;fill-opacity:1" />
  </g>
</svg>
